<svg xmlns="http://www.w3.org/2000/svg" viewBox="0 0 512 512">
  <defs>
    <radialGradient id="wc1" cx="30%" cy="30%" r="50%">
      <stop offset="0%" style="stop-color:#64B5F6;stop-opacity:0.4"/>
      <stop offset="100%" style="stop-color:#64B5F6;stop-opacity:0"/>
    </radialGradient>
    <radialGradient id="wc2" cx="70%" cy="60%" r="40%">
      <stop offset="0%" style="stop-color:#81C784;stop-opacity:0.3"/>
      <stop offset="100%" style="stop-color:#81C784;stop-opacity:0"/>
    </radialGradient>
    <radialGradient id="wc3" cx="50%" cy="40%" r="35%">
      <stop offset="0%" style="stop-color:#CE93D8;stop-opacity:0.25"/>
      <stop offset="100%" style="stop-color:#CE93D8;stop-opacity:0"/>
    </radialGradient>
  </defs>
  <rect width="512" height="512" fill="#FAFAFA"/>
  <!-- Watercolor washes -->
  <ellipse cx="180" cy="180" rx="140" ry="120" fill="url(#wc1)"/>
  <ellipse cx="340" cy="280" rx="120" ry="100" fill="url(#wc2)"/>
  <ellipse cx="250" cy="220" rx="100" ry="90" fill="url(#wc3)"/>
  <ellipse cx="150" cy="320" rx="90" ry="70" fill="#FFCC80" opacity="0.15"/>
  <ellipse cx="350" cy="150" rx="80" ry="60" fill="#EF9A9A" opacity="0.15"/>
  <!-- Floral accents -->
  <g fill="none" stroke="#81C784" stroke-width="1.5" opacity="0.5">
    <path d="M280 130 C290 120 300 120 300 135 C300 150 290 150 280 140"/>
    <path d="M280 130 C270 120 260 120 260 135 C260 150 270 150 280 140"/>
  </g>
  <circle cx="280" cy="136" r="3" fill="#FFCC80" opacity="0.4"/>
  <text x="256" y="400" text-anchor="middle" fill="#64B5F6" font-family="cursive, sans-serif" font-size="20">Watercolor</text>
</svg>
