<svg xmlns="http://www.w3.org/2000/svg" viewBox="0 0 400 500" fill="none">
  <rect width="400" height="500" rx="24" fill="#F8F9FA"/>
  <!-- Shadow -->
  <ellipse cx="200" cy="470" rx="120" ry="15" fill="#000" opacity="0.08"/>
  <!-- Body -->
  <path d="M140 80 L100 130 L95 200 L105 200 L105 420 C105 435 115 445 130 445 L270 445 C285 445 295 435 295 420 L295 200 L305 200 L300 130 L260 80" stroke="#2C3E50" stroke-width="3" fill="#fff"/>
  <!-- Hood/Band -->
  <path d="M145 85 C145 50 200 30 200 30 C200 30 255 50 255 85 L260 80 L255 100 L145 100 L140 80 Z" stroke="#2C3E50" stroke-width="3" fill="#E8ECF0"/>
  <!-- Drawstrings -->
  <path d="M175 100 L170 140 M225 100 L230 140" stroke="#2C3E50" stroke-width="2" fill="none"/>
  <!-- Center print area -->
  <rect x="155" y="170" width="90" height="100" rx="8" fill="#E8ECF0" stroke="#D0D5DD" stroke-width="1.5" stroke-dasharray="6 4"/>
  <text x="200" y="228" text-anchor="middle" font-family="sans-serif" font-size="12" fill="#98A2B3">Your Design Here</text>
  <!-- Sleeves -->
  <path d="M140 80 L100 130 L115 135 L140 100" stroke="#2C3E50" stroke-width="2" fill="#F0F2F5"/>
  <path d="M260 80 L300 130 L285 135 L260 100" stroke="#2C3E50" stroke-width="2" fill="#F0F2F5"/>
  <!-- Bottom band -->
  <path d="M105 420 C105 435 115 445 130 445 L270 445 C285 445 295 435 295 420" stroke="#2C3E50" stroke-width="2" fill="none"/>
  <!-- Label -->
  <text x="200" y="480" text-anchor="middle" font-family="sans-serif" font-size="14" fill="#475467" font-weight="600">Gildan 18500</text>
</svg>
