<svg xmlns="http://www.w3.org/2000/svg" viewBox="0 0 400 500" fill="none">
  <rect width="400" height="500" rx="24" fill="#F8F9FA"/>
  <ellipse cx="200" cy="470" rx="120" ry="15" fill="#000" opacity="0.08"/>
  <!-- Crew neck body -->
  <path d="M145 100 L110 130 L100 200 L108 200 L108 420 C108 432 118 440 132 440 L268 440 C282 440 292 432 292 420 L292 200 L300 200 L290 130 L255 100" stroke="#2C3E50" stroke-width="3" fill="#fff"/>
  <!-- Neck band -->
  <path d="M155 100 C155 75 200 65 200 65 C200 65 245 75 245 100" stroke="#2C3E50" stroke-width="3" fill="#F5F5F5"/>
  <path d="M162 98 C165 85 195 78 200 78 C205 78 235 85 238 98" stroke="#2C3E50" stroke-width="1.5" fill="none"/>
  <!-- Sleeves -->
  <path d="M145 100 L110 130 L122 138 L148 108" stroke="#2C3E50" stroke-width="2" fill="#F0F2F5"/>
  <path d="M255 100 L290 130 L278 138 L252 108" stroke="#2C3E50" stroke-width="2" fill="#F0F2F5"/>
  <!-- Print area -->
  <rect x="155" y="165" width="90" height="95" rx="8" fill="#E8ECF0" stroke="#D0D5DD" stroke-width="1.5" stroke-dasharray="6 4"/>
  <text x="200" y="222" text-anchor="middle" font-family="sans-serif" font-size="12" fill="#98A2B3">Your Design Here</text>
  <!-- Bottom band -->
  <path d="M108 420 C108 432 118 440 132 440 L268 440 C282 440 292 432 292 420" stroke="#2C3E50" stroke-width="2" fill="none"/>
  <text x="200" y="480" text-anchor="middle" font-family="sans-serif" font-size="14" fill="#475467" font-weight="600">AA F496</text>
</svg>
