<svg xmlns="http://www.w3.org/2000/svg" width="512" height="512" viewBox="0 0 512 512">
  <defs>
    <linearGradient id="g" x1="0%" y1="0%" x2="100%" y2="100%">
      <stop offset="0%" stop-color="#8B5CF6"/>
      <stop offset="100%" stop-color="#3B82F6"/>
    </linearGradient>
  </defs>
  <rect width="512" height="512" rx="96" fill="#fff"/>
  <path d="M120 400 L240 140 Q256 104 272 140 L340 290 L380 230 Q392 210 404 230 L440 310" fill="none" stroke="#1E293B" stroke-width="56" stroke-linecap="round" stroke-linejoin="round"/>
  <rect x="360" y="280" width="36" height="36" rx="6" fill="#8B5CF6"/>
  <rect x="410" y="250" width="36" height="36" rx="6" fill="#8B5CF6"/>
  <rect x="335" y="330" width="36" height="36" rx="6" fill="#8B5CF6"/>
  <rect x="385" y="320" width="36" height="36" rx="6" fill="url(#g)"/>
  <rect x="450" y="300" width="36" height="36" rx="6" fill="#3B82F6"/>
  <path d="M270 350 L370 460 Q388 480 406 460 L490 365" fill="url(#g)"/>
</svg>
