<svg xmlns="http://www.w3.org/2000/svg" viewBox="0 0 120 120" fill="none">
  <rect width="120" height="120" rx="16" fill="#EEF4FF"/>
  <!-- Long sleeve body -->
  <path d="M38 25 L30 40 L30 100 L90 100 L90 40 L82 25" stroke="#3B82F6" stroke-width="2.5" stroke-linejoin="round" fill="#DBEAFE"/>
  <!-- Collar -->
  <path d="M42 25 C42 10 60 8 60 8 C60 8 78 10 78 25" stroke="#3B82F6" stroke-width="2.5" fill="none"/>
  <!-- Long sleeves -->
  <path d="M38 25 L22 30 L22 82 L28 82 L30 35" stroke="#3B82F6" stroke-width="2" fill="#BFDBFE"/>
  <path d="M82 25 L98 30 L98 82 L92 82 L90 35" stroke="#3B82F6" stroke-width="2" fill="#BFDBFE"/>
  <!-- Cuffs -->
  <path d="M20 82 L30 82" stroke="#3B82F6" stroke-width="2.5" stroke-linecap="round"/>
  <path d="M100 82 L90 82" stroke="#3B82F6" stroke-width="2.5" stroke-linecap="round"/>
  <!-- Bottom hem -->
  <path d="M30 100 L90 100" stroke="#3B82F6" stroke-width="2"/>
</svg>
